<?xml version="1.0" encoding="utf-8"?>
<!-- Generator: Adobe Illustrator 24.1.0, SVG Export Plug-In . SVG Version: 6.00 Build 0)  -->
<svg version="1.1" id="Layer_1" xmlns="http://www.w3.org/2000/svg" xmlns:xlink="http://www.w3.org/1999/xlink" x="0px" y="0px"
	 viewBox="0 0 500 500" style="enable-background:new 0 0 500 500;" xml:space="preserve">
<style type="text/css">
	.st0{fill:#FAE300;}
	.st1{fill:#391B1B;}
</style>
<path class="st0" d="M249.6,498.2L249.6,498.2C113,498.2,1.2,386.4,1.2,249.8v0C1.2,113.2,113,1.4,249.6,1.4h0
	C386.2,1.4,498,113.2,498,249.8v0C498,386.4,386.2,498.2,249.6,498.2z"/>
<path class="st1" d="M248.1,105.1c-88.3,0-159.9,62.3-159.9,135.3c0,47.5,30.3,89.1,75.8,112.4c0,0,0,0,0,0
	c-3.3,13.1-12.1,46.2-13.9,53.5c-2.2,9.1,3.2,9,6.7,6.5c2.7-1.9,43.8-30,61.5-42.6c0,0,0,0,0,0c9.6,1.5,19.5,2.3,29.7,2.3
	c88.3,0,159.9-59.2,159.9-132.1C408,167.4,336.4,105.1,248.1,105.1"/>
<g>
	<g>
		<path class="st0" d="M197.4,194.8v84.1c0,5.2-4.1,7.5-8.8,7.5c-4.7,0-8.8-2.3-8.8-7.5v-71.1l-17.7,10.2c-4.5,2.6-8.9,0.5-11.1-3.4
			c-2.1-3.7-1.5-8.5,2.7-10.8l23.2-12.9c4.8-2.6,8-3.6,11.3-3.6C193.4,187.2,197.4,189.5,197.4,194.8z"/>
		<path class="st0" d="M188.6,288.9c-6.7,0-11.3-4-11.3-10v-66.8l-14,8c-2.6,1.5-5.3,1.9-7.9,1.1c-2.8-0.8-5.1-2.7-6.7-5.5
			c-1.5-2.6-1.9-5.7-1.1-8.4c0.7-2.5,2.4-4.6,4.8-5.9l23.2-12.9c5.1-2.8,8.7-3.9,12.5-3.9c7.2,0,11.7,3.9,11.7,10v84.1
			C199.9,284.9,195.4,288.9,188.6,288.9z"/>
	</g>
	<g>
		<path class="st0" d="M259,214c0,6.2-4.7,10.8-10.8,10.8c-6.2,0-10.8-4.7-10.8-10.8c0-6.2,4.7-10.8,10.8-10.8
			C254.4,203.1,259,207.8,259,214z M259,267.5c0,6.2-4.7,10.8-10.8,10.8c-6.2,0-10.8-4.7-10.8-10.8s4.7-10.8,10.8-10.8
			C254.4,256.6,259,261.3,259,267.5z"/>
		<path class="st0" d="M248.2,280.8c-7.6,0-13.3-5.7-13.3-13.3c0-7.6,5.7-13.3,13.3-13.3c7.6,0,13.3,5.7,13.3,13.3
			C261.5,275.1,255.8,280.8,248.2,280.8z M248.2,227.3c-7.6,0-13.3-5.7-13.3-13.3s5.7-13.3,13.3-13.3c7.6,0,13.3,5.7,13.3,13.3
			S255.8,227.3,248.2,227.3z"/>
	</g>
	<g>
		<path class="st0" d="M336,194.8v84.1c0,5.2-4.1,7.5-8.8,7.5c-4.7,0-8.8-2.3-8.8-7.5v-71.1l-17.7,10.2c-4.5,2.6-8.9,0.5-11.1-3.4
			c-2.1-3.7-1.5-8.5,2.7-10.8l23.2-12.9c4.8-2.6,8-3.6,11.3-3.6C332,187.2,336,189.5,336,194.8z"/>
		<path class="st0" d="M327.2,288.9c-6.7,0-11.3-4-11.3-10v-66.8l-14,8c-2.6,1.5-5.3,1.9-7.9,1.1c-2.8-0.8-5.1-2.7-6.7-5.5
			c-1.5-2.6-1.9-5.7-1.1-8.4c0.7-2.5,2.4-4.6,4.8-5.9l23.2-12.9c5.1-2.8,8.7-3.9,12.5-3.9c7.2,0,11.7,3.9,11.7,10v84.1
			C338.5,284.9,334,288.9,327.2,288.9z"/>
	</g>
</g>
</svg>
